<svg version="1.1" id="Layer_1" xmlns="http://www.w3.org/2000/svg" x="0" y="0" viewBox="0 0 256 256" style="enable-background:new 0 0 256 256" xml:space="preserve"><style>.st0{fill:#382b73}.st2{fill:#fff}.st3{fill:#d0d2d3}.st6{fill:#d1d3d4}.st8{fill:#f7cb15}.st9{fill:#fede3a}.st10{fill:#e7ad27}.st11{fill:#1caee4}.st12{fill:#009add}</style><switch><g><circle class="st0" cx="128" cy="126.684" r="120"/><circle cx="128" cy="126.684" r="102.5" style="fill:#473080"/><path class="st0" d="M207.086 131.684c0-.071-.001-.141-.003-.212l-.003-.073-.005-.139-.005-.083a5.409 5.409 0 0 0-.015-.216l-.01-.116-.009-.098-.012-.099a8.553 8.553 0 0 0-.061-.43l-.01-.062-.024-.132-.012-.063-.028-.137-.011-.049a6.414 6.414 0 0 0-.034-.148l-.007-.028a8.913 8.913 0 0 0-.256-.862l-.001-.004a8.875 8.875 0 0 0-4.62-5.076 74.064 74.064 0 0 0-16.557-39.565 77.606 77.606 0 0 0-2.826-3.233c-6.892-7.445-15.065-13.31-24.29-17.428C148.733 59.163 138.542 57 128 57s-20.733 2.163-30.288 6.43c-9.225 4.119-17.397 9.984-24.29 17.428a77.606 77.606 0 0 0-2.826 3.233 74.071 74.071 0 0 0-16.557 39.565 8.866 8.866 0 0 0-4.88 5.951l-.004.015c-.013.052-.024.105-.036.158l-.008.038-.03.147-.01.051-.027.144-.007.045a8.037 8.037 0 0 0-.063.444l-.011.099-.009.098a4.536 4.536 0 0 0-.01.116l-.007.089a5.409 5.409 0 0 0-.008.127l-.005.083a6.453 6.453 0 0 0-.005.139l-.003.073-.003.211a8.935 8.935 0 0 0 .537 3.041 8.184 8.184 0 0 0 .336.794c.062.129.127.256.195.381l.104.187a9.101 9.101 0 0 0 .715 1.059 9.092 9.092 0 0 0 1.012 1.086 9.583 9.583 0 0 0 .616.511l.086.064a8.949 8.949 0 0 0 1.594.936c1.861 16.69 9.266 32.144 21.314 44.192l.206.205a74.831 74.831 0 0 0 5.557 4.997l.104.084.147.119a73.598 73.598 0 0 0 27.445 13.906c4.418 5.713 11.339 9.392 19.119 9.392 7.781 0 14.701-3.679 19.119-9.392a73.613 73.613 0 0 0 27.445-13.906l.147-.119.104-.084a74.831 74.831 0 0 0 5.557-4.997l.206-.205c12.048-12.048 19.453-27.502 21.314-44.192a8.846 8.846 0 0 0 3.801-3.292 8.932 8.932 0 0 0 .93-1.931c.299-.89.463-1.844.463-2.836zM63.55 138.373a8.683 8.683 0 0 0 .759-.741 8.648 8.648 0 0 0 .904-1.18c.077-.12.15-.241.222-.365l.057-.102h19.915c.321 9.331 1.611 18.341 3.781 26.643l-.002.001-.001-.003a73.763 73.763 0 0 0-4.274 2.827l-.049.035c-.184.131-.367.263-.549.396l-.144.105c-.17.124-.339.248-.507.374l-.16.12-.362.273-.22.167-.425.327-.262.204-.265.209-.412.328-.223.179-.287.233a66.024 66.024 0 0 0-.665.549l-.206.173-.415.352-.256.219-.254.22-.319.279-.283.251-.311.278-.193.174-.444.405-.15.139a48.56 48.56 0 0 0-.469.438c-7.458-9.352-12.398-20.796-13.785-33.296.087-.07.171-.139.254-.211zm20.578 39.604a64.991 64.991 0 0 1 7.927-6.169c1.444 3.93 3.108 7.637 4.98 11.07 1.672 3.065 3.473 5.843 5.384 8.321-.211-.09-.422-.182-.632-.275l-.032-.014c-.184-.081-.368-.164-.552-.247l-.169-.077a72.213 72.213 0 0 1-.487-.224l-.209-.098-.406-.192-.236-.113-.408-.199-.165-.081a47.183 47.183 0 0 1-.664-.334 49.777 49.777 0 0 1-.514-.264l-.122-.064a51.989 51.989 0 0 1-.522-.276l-.039-.021a78.276 78.276 0 0 1-.917-.503 57.344 57.344 0 0 1-2.049-1.188 55.753 55.753 0 0 1-.842-.516l-.169-.106-.021-.013a65.571 65.571 0 0 1-9.913-7.703c.257-.238.516-.479.777-.714zm-.082-94.635.086-.078a63.747 63.747 0 0 1 1.799-1.576l.15-.129.341-.284.058-.047a64.94 64.94 0 0 1 2.416-1.904l.311-.231.022-.016.259-.192.27-.196.122-.088.114-.084.415-.295.05-.035c.392-.275.784-.546 1.179-.811l.056-.038c.198-.132.396-.264.594-.394l.544-.352.044-.029c.22-.141.44-.28.661-.418l.059-.036c.181-.113.362-.224.544-.335l.096-.058c.123-.075.247-.148.37-.222l.043-.025a66.168 66.168 0 0 1 2.414-1.371l.089-.048.47-.25.185-.098.384-.199.271-.139.308-.155.347-.174.243-.119.46-.224.005-.003a72.698 72.698 0 0 1 .658-.312l.328-.151.143-.065.24-.11c.408-.184.817-.365 1.228-.541l.001-.001c-2.351 3.041-4.517 6.516-6.48 10.404a83.19 83.19 0 0 0-3.353 7.585 8.834 8.834 0 0 0-2.114.328 64.794 64.794 0 0 1-7.145-5.827l.315-.294.081-.076c.108-.094.213-.191.319-.287zm69.53-11.829c.413.177.824.358 1.233.543l.236.108.137.062.333.153.031.015a51.44 51.44 0 0 1 1.096.526l.241.118.342.171.316.16.262.134.39.202.189.1c.155.082.309.163.463.246l.101.055c.183.099.365.198.547.299l.011.006a63.849 63.849 0 0 1 1.889 1.086c.124.074.247.147.37.222l.096.058.55.338.048.03c.222.139.444.279.665.42l.045.03.543.351c.2.131.399.263.598.396l.053.036c.395.265.787.537 1.178.811l.052.036a52.705 52.705 0 0 1 .528.378l.126.09.268.195.257.19.021.016c.104.077.208.153.311.231l.167.127a64.94 64.94 0 0 1 2.249 1.777l.06.049.339.282.15.129a63.747 63.747 0 0 1 1.799 1.576l.086.078a28.63 28.63 0 0 1 .397.367l.315.294a64.942 64.942 0 0 1-7.145 5.827 8.819 8.819 0 0 0-2.114-.328 83.19 83.19 0 0 0-3.353-7.585c-1.963-3.888-4.129-7.363-6.48-10.404l.004-.001zm-1.782 14.575a75.68 75.68 0 0 1 3.496 8.11 8.785 8.785 0 0 0-.732 1.862 65.218 65.218 0 0 1-21.93 5.518V66.925c7.125 2.057 13.927 8.789 19.166 19.163zm-28.422-19.163v34.654a65.266 65.266 0 0 1-21.93-5.518 8.996 8.996 0 0 0-.206-.666l-.001-.004a8.947 8.947 0 0 0-.524-1.193 75.565 75.565 0 0 1 3.496-8.11c5.238-10.374 12.04-17.106 19.165-19.163zm0 94.21v3.638c-8.047 1.561-14.668 7.117-17.716 14.52-2.028-3.602-3.835-7.671-5.373-12.108a65.251 65.251 0 0 1 23.089-6.05zm26.972 18.159c-3.048-7.404-9.669-12.959-17.716-14.521v-3.638a65.251 65.251 0 0 1 23.089 6.05c-1.538 4.437-3.345 8.506-5.373 12.109zm7.993-21.13-.049-.021-.444-.197-.088-.038a37.947 37.947 0 0 0-.355-.154l-.145-.062-.294-.126-.178-.075-.271-.114-.157-.065-.292-.12-.151-.061-.293-.118-.171-.068-.276-.109-.178-.07-.269-.105-.179-.069-.275-.105-.169-.063-.283-.106-.18-.066-.257-.094-.213-.077-.236-.085-.212-.075-.241-.085-.215-.075-.238-.082-.213-.072-.244-.082-.208-.069a23.13 23.13 0 0 0-.244-.08l-.211-.069-.239-.077-.226-.072-.23-.072-.217-.068a23.456 23.456 0 0 0-.248-.076l-.208-.063-.238-.072-.23-.068-.221-.065-.235-.068-.217-.062a23 23 0 0 0-.248-.07l-.197-.055-.261-.072-.21-.057-.245-.066-.219-.058-.246-.065-.186-.048-.282-.072a46.03 46.03 0 0 0-.468-.117l-.454-.111-.027-.006a74.211 74.211 0 0 0-2.685-.59l-.044-.009-.441-.086-.016-.003-.415-.079-.055-.01a43.196 43.196 0 0 0-.382-.07l-.09-.016-.363-.064-.107-.019-.343-.058-.131-.022-.359-.059-.094-.015-.37-.058-.107-.016a42.714 42.714 0 0 0-.352-.053l-.119-.018-.348-.05-.125-.018-.35-.048-.119-.016-.335-.044-.152-.019-.316-.039-.165-.02-.291-.034a14.138 14.138 0 0 0-.204-.023l-.267-.03-.208-.022-.269-.028a15.651 15.651 0 0 1-.215-.022l-.253-.025-.243-.023-.232-.021-.245-.021-.233-.02-.279-.023-.183-.015-.318-.024-.166-.012-.395-.027-.066-.004-.277-.017v-12.629l.14-.087a8.394 8.394 0 0 0 .859-.627 8.307 8.307 0 0 0 .628-.571 9.096 9.096 0 0 0 .571-.628c.34-.412.643-.856.905-1.326h25.597c-.298 7.817-1.341 15.303-2.989 22.181-.001-.005-.002-.005-.003-.006zm-23.007-31.435a8.902 8.902 0 0 0-2.702-2.586V110.86l.277-.017.066-.004.395-.027.166-.012.318-.024.183-.015.279-.023.233-.02.243-.021.255-.024.211-.02.272-.027.207-.021.269-.028.205-.022.288-.032.173-.02.309-.036.161-.019.316-.039.152-.019.335-.044.119-.016.35-.048.125-.018.348-.05.119-.018.352-.053.107-.016.37-.058.09-.014.375-.061.094-.016.369-.063a45.987 45.987 0 0 0 .469-.083l.09-.016.382-.07.055-.01.415-.079.014-.003c1.349-.26 2.69-.559 4.022-.894l.099-.025.327-.084.131-.034.306-.081.158-.042a26.425 26.425 0 0 0 .456-.124 108.103 108.103 0 0 1 .468-.129l.271-.077.184-.052.276-.08.18-.053.266-.079.203-.061.227-.069.24-.074.217-.068.227-.072.242-.077.213-.069.228-.074.24-.079.208-.069.244-.082.213-.073.238-.082.215-.074.241-.085.212-.075.236-.085.213-.077.248-.091.199-.074.247-.092c.069-.026.138-.051.206-.078l.246-.094.198-.076.267-.104.178-.07.276-.109.171-.068.293-.118.151-.061.292-.12.157-.065.271-.114.178-.075.294-.125.035-.015a8.772 8.772 0 0 0 1.413 1.01l.019.011c1.456 6.542 2.342 13.521 2.609 20.702H135.33zm-38.052-20.702a8.815 8.815 0 0 0 1.432-1.02l.022.009.31.132.156.065.29.122.157.065.292.12.146.059.301.122.152.06.295.117.164.064.277.108.197.076.245.094.213.08.236.088.21.078.24.088.216.078.229.082.221.078.236.083.211.073.24.083.217.074.234.079.22.073.23.076.232.076.218.07.234.075.231.073.221.069.229.071.237.072.199.06.265.079.183.054.278.081.177.051a99.813 99.813 0 0 0 .463.13l.277.077.16.043c.1.027.2.055.301.081l.142.038.322.085.117.03.338.087.099.025a72.674 72.674 0 0 0 4.036.897l.415.079.055.01.382.07.09.016.363.064.106.019.369.063.094.016a48.748 48.748 0 0 0 .835.133l.107.016.352.053.119.018a41.625 41.625 0 0 0 .473.068l.35.048.119.016.335.044.152.019.316.039.161.019.309.036.173.02.287.032.205.022a22.202 22.202 0 0 0 .476.049l.272.027.211.02.255.024.243.021.233.02.279.023.183.015.318.024.167.012.395.027.066.004.277.017v13.283a8.89 8.89 0 0 0-2.702 2.586H94.669c.267-7.181 1.153-14.16 2.609-20.702zm22.99 29.958a8.864 8.864 0 0 0 3.103 3.24v12.629l-.277.017-.066.004-.395.027-.167.012-.318.024-.183.015-.279.023-.233.02-.245.021-.232.021-.243.023-.253.025-.215.022-.269.028-.208.022-.267.03-.204.023-.291.034-.165.02-.316.039-.152.019-.335.044-.119.016-.35.048-.125.018-.348.05-.119.018-.352.053-.107.016-.37.058-.093.015-.359.059-.131.022-.343.058a45.987 45.987 0 0 0-.47.083l-.09.016-.382.07-.055.01-.415.079-.016.003-.441.086-.044.009c-.899.18-1.794.376-2.685.59l-.027.006c-.151.036-.303.073-.454.111l-.355.089-.113.028-.29.074-.176.045-.261.069-.203.054-.248.067a16.836 16.836 0 0 0-.468.129l-.201.056-.251.071-.211.061-.238.069-.224.066-.227.068a20.986 20.986 0 0 0-.453.138l-.237.073-.221.069-.234.074-.218.069-.243.078-.215.07-.235.077-.22.073-.234.079-.217.074-.24.083-.211.074-.236.083-.221.079-.229.082-.216.078-.249.091-.191.071-.272.102-.175.066-.274.104-.179.068-.278.108-.164.064a91.06 91.06 0 0 0-.447.177l-.301.122-.146.059-.292.12-.157.065-.29.122-.156.066-.31.133-.132.057-.355.154-.088.038-.444.197-.049.021-.003.001c-1.648-6.878-2.692-14.364-2.989-22.181h25.592zm51.604 41.992c.262.235.521.475.776.716a65.582 65.582 0 0 1-10.105 7.825c-.278.174-.558.346-.84.515a60.557 60.557 0 0 1-2.471 1.422l-.492.267-.052.027c-.17.091-.34.181-.511.27l-.124.065-.509.262-.174.088a44.96 44.96 0 0 1-.491.246l-.175.086-.393.191-.257.123-.387.183-.223.104c-.158.074-.316.146-.475.219l-.182.083c-.178.081-.356.16-.535.239l-.059.026-.615.267c1.911-2.478 3.712-5.257 5.384-8.321 1.873-3.433 3.537-7.14 4.98-11.07a64.83 64.83 0 0 1 7.93 6.167zm7.046-6.098a93.91 93.91 0 0 0-.619-.577l-.443-.405-.199-.179-.295-.264-.313-.277-.299-.262-.26-.225-.229-.196c-.146-.125-.293-.25-.44-.373l-.201-.168-.446-.37-.216-.178-.292-.237-.222-.178-.419-.334-.253-.199-.267-.209-.421-.324-.232-.176-.342-.258-.19-.142-.483-.356-.155-.113a67.898 67.898 0 0 0-.544-.392l-.049-.035a73.787 73.787 0 0 0-4.275-2.827l-.001.003-.002-.001c2.17-8.301 3.46-17.311 3.781-26.643h19.915a8.795 8.795 0 0 0 1.629 2.102 9.117 9.117 0 0 0 .567.496c-1.387 12.501-6.327 23.945-13.785 33.297zm13.848-47.146a8.894 8.894 0 0 0-1.856 1.996h-20.318c-.253-7.263-1.098-14.36-2.492-21.084a8.823 8.823 0 0 0 .955-.755l.155-.145c.154-.146.302-.298.445-.455.048-.052.094-.105.141-.159a8.81 8.81 0 0 0 2.157-5.789v-.001a7.37 7.37 0 0 0-.003-.211l-.002-.074a6.453 6.453 0 0 0-.005-.139l-.004-.083-.008-.126a2.725 2.725 0 0 0-.007-.09l-.01-.115-.01-.099a10.342 10.342 0 0 0-.082-.591l-.013-.072c.187-.137.374-.274.559-.412l.039-.03c.175-.13.349-.261.522-.393l.11-.083c.17-.13.34-.26.509-.392l.161-.126c.14-.109.279-.219.417-.329l.2-.159.388-.312.207-.168.439-.361.211-.176.309-.259.248-.21c.128-.108.254-.217.381-.326l.221-.191.378-.331.232-.205.333-.298.175-.158c.152-.137.303-.276.453-.414l.148-.136c.163-.151.326-.302.488-.455a64.78 64.78 0 0 1 13.829 33.916zM77.551 91.272l.148.136.453.414.175.158a89.326 89.326 0 0 0 .564.503l.378.331.221.191c.127.109.253.218.381.326a54.473 54.473 0 0 0 .768.645 76.503 76.503 0 0 0 .646.529c.129.104.258.209.388.312l.2.159.418.329.161.126.509.392.11.083c.174.132.347.263.522.393l.04.03c.186.138.372.276.559.412a1.717 1.717 0 0 0-.02.118 13.95 13.95 0 0 0-.045.295l-.006.044-.012.101-.012.106a1.621 1.621 0 0 0-.009.098l-.01.115-.007.09-.008.126-.005.083-.005.139a7.37 7.37 0 0 0-.005.285v.001a8.81 8.81 0 0 0 2.898 6.548 8.823 8.823 0 0 0 .955.755c-1.394 6.724-2.239 13.821-2.492 21.084H65.09a8.915 8.915 0 0 0-1.856-1.996 64.777 64.777 0 0 1 13.829-33.916c.162.153.325.304.488.455z"/><g><path class="st2" d="M185.404 77.091a77.606 77.606 0 0 0-2.826-3.233c-6.892-7.445-15.065-13.31-24.29-17.428C148.733 52.163 138.542 50 128 50s-20.733 2.163-30.287 6.43c-9.225 4.119-17.398 9.984-24.29 17.428a77.606 77.606 0 0 0-2.826 3.233c-10.962 13.297-16.953 29.92-16.953 47.265 0 19.863 7.735 38.534 21.778 52.578 14.044 14.044 32.716 21.779 52.578 21.779s38.534-7.735 52.578-21.779c14.044-14.044 21.779-32.716 21.779-52.578 0-17.344-5.992-33.967-16.953-47.265zM128 189.458c-35.896 0-65.101-29.205-65.101-65.101 0-14.824 4.995-29.044 14.164-40.54a65.092 65.092 0 0 1 6.269-6.815 64.464 64.464 0 0 1 5.896-4.924 58.03 58.03 0 0 1 2.536-1.786 55.538 55.538 0 0 1 1.339-.873c.395-.25.793-.497 1.194-.737.676-.41 1.358-.805 2.049-1.188a66.048 66.048 0 0 1 7.127-3.418 61.23 61.23 0 0 1 3.123-1.179c.265-.096.531-.185.799-.275.259-.089.521-.173.784-.256.265-.086.531-.17.796-.25.256-.08.512-.157.768-.231.04-.012.077-.021.117-.034a62.65 62.65 0 0 1 2.367-.642c.259-.065.518-.13.777-.188.271-.065.543-.13.814-.188.244-.056.487-.108.731-.16l.136-.028c.256-.056.512-.108.771-.157.271-.056.546-.108.821-.157.275-.052.549-.102.827-.148.275-.046.549-.093.827-.136l.052-.009c.453-.071.91-.136 1.367-.198.154-.021.305-.04.46-.062.41-.052.821-.102 1.231-.145.012 0 .022-.003.034-.003.244-.028.491-.052.734-.074.145-.015.29-.028.435-.04.231-.022.463-.043.694-.059.265-.022.531-.04.796-.059.296-.021.592-.037.892-.052.188-.012.376-.019.568-.028l.478-.019a64.485 64.485 0 0 1 4.658 0l.478.019c.191.009.38.015.568.028.299.015.596.031.892.052.265.019.531.037.796.059.231.015.463.037.694.059.145.012.29.025.435.04.244.022.491.046.734.074.012 0 .022.003.034.003.41.043.821.093 1.231.145.154.021.306.04.46.062.457.062.913.126 1.367.198l.053.009a52.809 52.809 0 0 1 1.654.284c.275.049.549.102.821.157a31.857 31.857 0 0 1 .907.185c.244.053.487.105.731.16.272.059.543.123.814.188a64.79 64.79 0 0 1 3.145.83l.117.034c.256.074.512.151.768.231.265.08.531.164.796.25.262.083.524.167.784.256.269.09.534.179.799.275a61.23 61.23 0 0 1 3.123 1.179 66.319 66.319 0 0 1 6.581 3.116c.182.099.364.201.546.302.691.382 1.373.777 2.049 1.188.401.241.799.487 1.194.737.018.012.034.021.052.034.432.274.861.552 1.286.839a58.901 58.901 0 0 1 2.536 1.786 54.13 54.13 0 0 1 1.203.91 64.464 64.464 0 0 1 10.962 10.829c9.169 11.496 14.164 25.715 14.164 40.54-.003 35.896-29.208 65.101-65.104 65.101z"/><path class="st3" d="M182.226 80.522a66.12 66.12 0 0 0-2.101-2.477 60.465 60.465 0 0 0-.944-1.043c-6.464-6.982-14.127-12.483-22.778-16.345-8.481-3.786-17.502-5.806-26.826-6.01-.059 0-.117-.003-.176-.003a21.57 21.57 0 0 0-.623-.009 67.088 67.088 0 0 0-.777-.006c-.259 0-.518.003-.777.006-.207 0-.417.003-.623.009-.059 0-.117.003-.176.003-9.324.204-18.345 2.224-26.826 6.01-8.651 3.863-16.315 9.364-22.778 16.345-.321.346-.635.694-.944 1.043a66.12 66.12 0 0 0-2.101 2.477c-10.03 12.384-15.503 27.779-15.503 43.835 0 18.625 7.253 36.134 20.424 49.305s30.679 20.424 49.305 20.424 36.134-7.253 49.305-20.424 20.424-30.679 20.424-49.305c-.002-16.056-5.475-31.451-15.505-43.835zM128 189.458c-35.896 0-65.101-29.205-65.101-65.101 0-14.824 4.995-29.044 14.164-40.54a61.153 61.153 0 0 1 2.209-2.628 63.919 63.919 0 0 1 6.658-6.501 64.94 64.94 0 0 1 5.708-4.311c.194-.136.392-.265.592-.395l.602-.389c.198-.133.398-.259.602-.383.2-.127.404-.25.605-.373.204-.127.404-.25.611-.367a65.298 65.298 0 0 1 8.263-4.165c.219-.09.438-.182.657-.268a37.7 37.7 0 0 1 .808-.321 8.86 8.86 0 0 1 .41-.157c.426-.167.855-.324 1.286-.481a67.865 67.865 0 0 1 1.506-.516c.287-.096.574-.188.861-.281.136-.043.272-.086.407-.126.256-.08.512-.157.771-.234.339-.102.685-.197 1.027-.293a62.748 62.748 0 0 1 3.172-.796c.271-.062.546-.12.818-.179a65.073 65.073 0 0 1 5.14-.87c.216-.028.432-.056.651-.08.605-.071 1.21-.136 1.814-.188.231-.022.466-.04.697-.059.012-.003.028-.003.043-.006l.651-.046a64.338 64.338 0 0 1 3.52-.142c.284-.003.565-.006.848-.006s.565.003.848.006a63.682 63.682 0 0 1 4.19.191h.006c.241.019.478.04.716.062a58.666 58.666 0 0 1 2.465.268c1.728.222 3.443.512 5.14.87.271.059.546.117.818.179a62.179 62.179 0 0 1 3.172.796c.342.096.688.191 1.027.293.259.077.515.154.771.234.136.04.271.083.407.126.287.093.574.185.861.281a58.17 58.17 0 0 1 1.506.516c.432.157.861.315 1.286.481.139.049.275.102.41.157.271.105.54.21.808.321.219.086.438.179.657.268.429.179.855.361 1.28.552.225.099.45.201.676.305a65.673 65.673 0 0 1 6.306 3.308c.207.117.407.241.611.367.201.123.404.247.605.373.204.123.404.25.602.383l.602.389c.201.13.398.259.592.395.395.265.787.537 1.179.812.195.133.389.271.58.413a64.94 64.94 0 0 1 12.816 12.215c9.169 11.496 14.164 25.715 14.164 40.54 0 35.896-29.205 65.101-65.101 65.101z"/><path class="st2" d="M128 198.713c-11.933 0-22.93-8.11-30.964-22.834-7.55-13.838-11.709-32.136-11.709-51.522 0-18.325 3.771-35.884 10.617-49.441 3.82-7.564 8.405-13.567 13.63-17.842C115.309 52.38 121.509 50 128 50s12.691 2.38 18.426 7.073c5.224 4.276 9.81 10.278 13.63 17.842 6.847 13.557 10.617 31.116 10.617 49.441 0 19.386-4.158 37.684-11.708 51.522-8.035 14.726-19.032 22.835-30.965 22.835zm0-139.457c-8.756 0-17.429 7.229-23.794 19.832-6.206 12.288-9.623 28.365-9.623 45.269 0 35.288 15.303 65.101 33.417 65.101s33.417-29.813 33.417-65.101c0-16.904-3.418-32.98-9.623-45.269-6.365-12.604-15.038-19.832-23.794-19.832z"/><path class="st3" d="M166.154 124.357c0-17.185-3.371-33.651-9.493-46.364-3.415-7.093-7.515-12.722-12.186-16.732-5.128-4.402-10.671-6.633-16.475-6.633-5.804 0-11.347 2.232-16.475 6.633-4.671 4.009-8.771 9.639-12.186 16.732-6.122 12.714-9.493 29.179-9.493 46.364 0 18.18 3.718 35.338 10.469 48.315 7.183 13.809 17.016 21.413 27.685 21.413 10.67 0 20.502-7.605 27.685-21.413 6.751-12.977 10.469-30.136 10.469-48.315zM128 189.458c-18.114 0-33.417-29.813-33.417-65.101 0-16.904 3.418-32.98 9.623-45.269 6.365-12.604 15.037-19.832 23.794-19.832s17.429 7.229 23.794 19.832c6.206 12.288 9.623 28.365 9.623 45.269 0 35.288-15.303 65.101-33.417 65.101z"/><path class="st2" d="M182.577 73.858c-6.892-7.445-15.065-13.31-24.29-17.428C148.733 52.163 138.542 50 128 50s-20.733 2.163-30.287 6.43c-9.225 4.119-17.398 9.984-24.29 17.428a77.606 77.606 0 0 0-2.826 3.233l2.826 3.054a73.757 73.757 0 0 0 3.641 3.671A73.903 73.903 0 0 0 97.713 97.57c9.243 4.128 19.079 6.285 29.254 6.423.346.003.688.006 1.034.006s.688-.003 1.034-.006c10.175-.139 20.011-2.295 29.254-6.423a73.889 73.889 0 0 0 20.649-13.754 74.173 74.173 0 0 0 3.64-3.671l2.826-3.054a78.375 78.375 0 0 0-2.827-3.233zm-10.705 3.878C159.938 88.605 144.234 94.745 128 94.745s-31.938-6.14-43.872-17.009a42.682 42.682 0 0 1-.796-.734 64.464 64.464 0 0 1 5.896-4.924 58.03 58.03 0 0 1 2.536-1.786 55.538 55.538 0 0 1 1.339-.873c.395-.25.793-.497 1.194-.737.676-.41 1.358-.805 2.049-1.188a66.048 66.048 0 0 1 7.127-3.418 61.23 61.23 0 0 1 3.123-1.179c.265-.096.531-.185.799-.275.259-.089.521-.173.784-.256.265-.086.531-.17.796-.25.256-.08.512-.157.768-.231.04-.012.077-.021.117-.034a62.65 62.65 0 0 1 2.367-.642c.259-.065.518-.13.777-.188.271-.065.543-.13.814-.188.244-.056.487-.111.731-.16l.136-.028c.256-.056.512-.108.771-.157.271-.056.546-.108.821-.157.275-.052.549-.102.827-.148.275-.046.549-.093.827-.136l.052-.009c.453-.071.91-.136 1.367-.198.154-.021.305-.04.46-.062.41-.052.821-.102 1.231-.145.012 0 .022-.003.034-.003.244-.028.491-.052.734-.074.145-.015.29-.028.435-.04.231-.022.463-.043.694-.059.265-.022.531-.04.796-.059.296-.021.592-.037.892-.052.188-.012.376-.019.568-.028l.478-.019a64.485 64.485 0 0 1 4.658 0l.478.019c.191.009.38.015.568.028.299.015.596.031.892.052.265.019.531.037.796.059.231.015.463.037.694.059.145.012.29.025.435.04.244.022.491.046.734.074.012 0 .022.003.034.003.41.043.821.093 1.231.145.154.021.306.04.46.062.457.062.913.126 1.367.198l.053.009a52.809 52.809 0 0 1 1.654.284c.275.049.549.102.821.157a31.857 31.857 0 0 1 .907.185c.244.049.487.105.731.16.272.059.543.123.814.188a64.79 64.79 0 0 1 3.145.83l.117.034c.256.074.512.151.768.231.265.08.531.164.796.25.262.083.524.167.784.256.269.09.534.179.799.275a61.23 61.23 0 0 1 3.123 1.179 66.319 66.319 0 0 1 6.581 3.116c.182.099.364.201.546.302.691.382 1.373.777 2.049 1.188.401.241.799.487 1.194.737.018.012.034.021.052.034.432.274.861.552 1.286.839a58.901 58.901 0 0 1 2.536 1.786 54.13 54.13 0 0 1 1.203.91 64.464 64.464 0 0 1 4.693 4.014c-.266.247-.531.493-.799.734z"/><path class="st3" d="M80.179 74.213c8.271-8.028 18.317-13.822 29.155-16.938-2.453 2.033-4.76 4.452-6.911 7.238a65.373 65.373 0 0 0-19.091 12.489c.262.247.528.494.796.734-.006.003-.009.006-.016.012a71.235 71.235 0 0 1-3.933-3.535zM144.475 61.261l.213.185A64.786 64.786 0 0 0 128 59.255c-5.674 0-11.283.75-16.688 2.191l.213-.185c4.924-4.227 10.231-6.451 15.781-6.621.231-.006.463-.006.694-.006s.463 0 .694.006c5.55.17 10.857 2.394 15.781 6.621zM175.821 74.213a70.553 70.553 0 0 1-3.934 3.536c-.006-.006-.009-.009-.015-.012.268-.241.534-.487.796-.734a65.386 65.386 0 0 0-19.091-12.489c-2.15-2.786-4.458-5.205-6.911-7.238 10.838 3.115 20.883 8.909 29.155 16.937zM128 104.001zM128 104.001zM79.272 81.189a73.682 73.682 0 0 0 11.045 7.947 97.184 97.184 0 0 0-1.12 3.958 73.997 73.997 0 0 1-12.134-9.277 77.431 77.431 0 0 1-3.289-3.295 66.12 66.12 0 0 1 2.101-2.477 72.931 72.931 0 0 0 3.397 3.144zM162.777 95.384a73.018 73.018 0 0 1-4.4 2.147c-.031.012-.059.028-.089.04-9.555 4.267-19.745 6.43-30.288 6.43s-20.733-2.163-30.287-6.43c-.031-.012-.059-.028-.09-.04a73.311 73.311 0 0 1-4.4-2.147c.336-1.376.7-2.734 1.086-4.066a72.748 72.748 0 0 0 4.399 2.061c9.265 3.98 19.113 5.995 29.291 5.995s20.026-2.015 29.291-5.995a72.748 72.748 0 0 0 4.4-2.061c.009.037.022.071.031.108.148.512.293 1.027.432 1.549a81.055 81.055 0 0 1 .509 1.947c.037.153.078.307.115.462zM182.226 80.522a76.848 76.848 0 0 1-3.289 3.295 73.941 73.941 0 0 1-12.134 9.277 96.73 96.73 0 0 0-1.12-3.958 73.753 73.753 0 0 0 11.045-7.947 72.931 72.931 0 0 0 3.397-3.144 66.12 66.12 0 0 1 2.101 2.477z"/><g><path class="st2" d="m185.404 171.622-2.826-3.054a74.632 74.632 0 0 0-3.64-3.672 73.903 73.903 0 0 0-20.649-13.754c-9.243-4.128-19.079-6.285-29.254-6.424-.346-.003-.688-.006-1.034-.006s-.688.003-1.034.006c-10.175.139-20.011 2.295-29.254 6.424a73.889 73.889 0 0 0-20.649 13.754 74.655 74.655 0 0 0-3.641 3.672l-2.826 3.054a76.966 76.966 0 0 0 2.826 3.233c6.892 7.445 15.065 13.31 24.29 17.428 9.555 4.267 19.745 6.43 30.287 6.43s20.733-2.163 30.288-6.43c9.225-4.119 17.397-9.984 24.29-17.428a78.445 78.445 0 0 0 2.826-3.233zm-12.736.09a64.253 64.253 0 0 1-5.896 4.924 58.901 58.901 0 0 1-2.536 1.786c-.426.287-.855.565-1.286.839l-.052.034c-.395.25-.793.497-1.194.737-.676.41-1.357.805-2.049 1.188-.182.102-.364.204-.546.302a66.319 66.319 0 0 1-6.581 3.116 61.23 61.23 0 0 1-3.123 1.179c-.265.096-.531.185-.799.275-.259.089-.521.173-.784.256-.265.086-.531.17-.796.25-.256.08-.512.157-.768.231l-.117.034a62.65 62.65 0 0 1-3.959 1.018c-.244.055-.487.111-.731.16l-.136.028c-.256.055-.512.108-.771.157-.271.056-.546.108-.821.157-.275.052-.549.102-.827.148-.275.046-.549.092-.827.136l-.053.009c-.454.071-.91.136-1.367.197-.154.021-.305.04-.46.062-.41.052-.821.102-1.231.145-.012 0-.022.003-.034.003-.244.028-.49.052-.734.074-.145.015-.29.028-.435.04a27.05 27.05 0 0 1-.694.059c-.265.022-.531.04-.796.059-.296.021-.592.037-.892.052-.188.012-.376.019-.568.028l-.478.019a64.527 64.527 0 0 1-4.658 0l-.478-.019c-.191-.009-.379-.015-.568-.028a53.238 53.238 0 0 1-1.688-.111 23.185 23.185 0 0 1-.694-.059c-.145-.012-.29-.025-.435-.04a29.887 29.887 0 0 1-.734-.074c-.012 0-.022-.003-.034-.003-.41-.043-.821-.093-1.231-.145-.154-.022-.305-.04-.46-.062a76.185 76.185 0 0 1-1.367-.197l-.052-.009a52.809 52.809 0 0 1-1.654-.284 36.072 36.072 0 0 1-.821-.157 31.857 31.857 0 0 1-.771-.157l-.136-.028c-.244-.049-.487-.105-.731-.16a38.321 38.321 0 0 1-.814-.188 64.79 64.79 0 0 1-3.144-.83l-.117-.034a37.315 37.315 0 0 1-.768-.231c-.265-.08-.531-.163-.796-.25a35.851 35.851 0 0 1-.784-.256c-.268-.09-.534-.179-.799-.275a61.23 61.23 0 0 1-3.123-1.179 66.319 66.319 0 0 1-6.581-3.116c-.182-.099-.364-.201-.546-.302a58.907 58.907 0 0 1-2.049-1.188 60.711 60.711 0 0 1-1.194-.737l-.052-.034a59.028 59.028 0 0 1-1.287-.839 58.901 58.901 0 0 1-2.536-1.786 54.13 54.13 0 0 1-1.203-.91 64.464 64.464 0 0 1-4.693-4.014c.262-.247.528-.494.796-.734 11.934-10.869 27.637-17.009 43.872-17.009s31.938 6.14 43.872 17.009c.271.24.536.487.799.734z"/></g><g><path class="st3" d="M109.285 191.426c-10.82-3.122-20.847-8.91-29.106-16.926a70.553 70.553 0 0 1 3.934-3.536.045.045 0 0 0 .016.012c-.269.241-.534.488-.796.734a65.333 65.333 0 0 0 19.088 12.489c2.156 2.8 4.455 5.213 6.864 7.227zM128 189.458a64.82 64.82 0 0 0 16.725-2.2c-4.918 4.307-10.366 6.652-16.068 6.815-.219.006-.438.006-.657.006s-.438 0-.657-.006c-5.701-.163-11.15-2.508-16.068-6.815a64.82 64.82 0 0 0 16.725 2.2zM175.821 174.501c-8.259 8.015-18.286 13.803-29.106 16.926 2.41-2.015 4.708-4.427 6.865-7.226a65.333 65.333 0 0 0 19.088-12.489 42.417 42.417 0 0 0-.796-.734c.006-.003.009-.006.015-.012a70.494 70.494 0 0 1 3.934 3.535zM128 144.713zM128 144.713z"/></g><g><path class="st3" d="M89.185 155.625c.352 1.339.725 2.66 1.12 3.958a73.752 73.752 0 0 0-11.033 7.941 72.931 72.931 0 0 0-3.397 3.144 66.12 66.12 0 0 1-2.101-2.477 76.848 76.848 0 0 1 3.289-3.295 74.164 74.164 0 0 1 12.122-9.271zM158.337 151.164a75.368 75.368 0 0 1 4.452 2.172c-.339 1.376-.7 2.73-1.089 4.063a73.114 73.114 0 0 0-4.452-2.083c-9.253-3.968-19.088-5.976-29.248-5.976s-19.995 2.008-29.248 5.976a73.114 73.114 0 0 0-4.452 2.083 99.255 99.255 0 0 1-1.089-4.063 75.368 75.368 0 0 1 4.452-2.172l.049-.021c9.555-4.267 19.745-6.43 30.287-6.43s20.733 2.163 30.288 6.43l.05.021zM182.226 168.191a66.12 66.12 0 0 1-2.101 2.477 72.429 72.429 0 0 0-3.397-3.144 73.752 73.752 0 0 0-11.033-7.941c.395-1.299.768-2.619 1.12-3.958a74.164 74.164 0 0 1 12.122 9.271 78.021 78.021 0 0 1 3.289 3.295z"/></g><g><path class="st2" d="M58.271 119.729h139.458v9.256H58.271z"/></g><g><path class="st2" d="M123.372 54.628h9.256v139.458h-9.256z"/></g><g><circle transform="rotate(-22.154 128.004 181.487)" cx="128" cy="181.484" style="fill:#ef5a9d" r="24.154"/><path d="M146.544 176.044h-.773l-4.124-5.639a1.136 1.136 0 0 0-.987-.574h-9.767a3.209 3.209 0 0 0-5.754 0h-9.766c-.298 0-.568.114-.77.301a.771.771 0 0 0-.175.172l-4.198 5.74h-.773a.584.584 0 0 0-.584.583v.796a5.427 5.427 0 0 0 5.427 5.427h1.495a5.427 5.427 0 0 0 5.427-5.427v-.796a.583.583 0 0 0-.583-.583h-.773l-2.882-3.94h7.937a3.216 3.216 0 0 0 1.673 2.026v17.094h-1.223a2.977 2.977 0 0 0-2.925 2.424l-.007.041a2.219 2.219 0 0 0-.013.08l-.008.066-.009.074-.007.087-.004.057a3.509 3.509 0 0 0-.004.146v.77h-4.442a1.87 1.87 0 0 0-1.621.936l-.001-.001-.019.033-.008.015-.035.069-.009.019-.027.06-.007.015-.029.073-.007.02-.024.069-.003.008a1.73 1.73 0 0 0-.022.077l-.005.021a1.435 1.435 0 0 0-.016.07l-.003.012a2.18 2.18 0 0 0-.014.079l-.004.022a.958.958 0 0 0-.009.075l-.001.008a2.321 2.321 0 0 0-.007.083l-.001.02-.002.086a1.871 1.871 0 0 0 1.872 1.872h20.129a1.872 1.872 0 0 0 1.872-1.872l-.002-.088-.001-.016c-.001-.029-.004-.058-.007-.087v-.001l-.01-.083-.003-.018a1.205 1.205 0 0 0-.015-.083l-.001-.006a1.07 1.07 0 0 0-.018-.077l-.004-.017-.023-.081v-.002l-.026-.077-.006-.016a1.197 1.197 0 0 0-.03-.076l-.004-.01-.03-.066-.007-.015c-.011-.024-.024-.048-.037-.072l-.006-.01-.02-.036-.001.001a1.87 1.87 0 0 0-1.621-.936h-4.442v-.77a2.35 2.35 0 0 0-.004-.146l-.004-.062-.006-.081c-.002-.026-.006-.051-.009-.077l-.008-.064-.013-.08a.5.5 0 0 0-.007-.041h-.001a2.976 2.976 0 0 0-2.924-2.424h-1.224V174.13a3.218 3.218 0 0 0 1.672-2.026h7.906l-2.882 3.94h-.773a.583.583 0 0 0-.583.583v.796a5.427 5.427 0 0 0 5.427 5.427h1.495a5.427 5.427 0 0 0 5.427-5.427v-.796a.58.58 0 0 0-.582-.583zm-34.411 0 2.914-3.984 2.914 3.984h-5.828zm25.906 0 2.908-3.977.009-.003 2.91 3.979h-5.827z" style="fill:#e43d91"/><path class="st2" d="M138.08 196.819h-20.129a1.872 1.872 0 1 1 0-3.744h20.129a1.872 1.872 0 1 1 0 3.744z"/><path class="st6" d="M138.08 194.947h-20.129a1.868 1.868 0 0 1-1.621-.936 1.872 1.872 0 0 0 1.622 2.808h20.129a1.872 1.872 0 0 0 1.622-2.808c-.325.559-.93.936-1.623.936z"/><path style="fill:#e6e7e8" d="M126.593 171.886h2.844v21.188h-2.844z"/><path class="st2" d="M127.32 171.886h1.392v21.188h-1.392z"/><path class="st8" d="M130.661 189.329h-5.292a2.977 2.977 0 0 0-2.977 2.977v.769h11.245v-.769a2.976 2.976 0 0 0-2.976-2.977z"/><path class="st9" d="M128.696 189.329h-1.361a2.089 2.089 0 0 0-2.089 2.089v1.656h5.54v-1.656a2.09 2.09 0 0 0-2.09-2.089z"/><path class="st10" d="M133.587 191.753h-11.142a2.963 2.963 0 0 0-.051.553v.769h11.245v-.769a3.15 3.15 0 0 0-.052-.553z"/><path class="st2" d="M114.235 169.073c0-.628.509-1.137 1.137-1.137h25.288a1.137 1.137 0 1 1 0 2.274h-25.288a1.138 1.138 0 0 1-1.137-1.137z"/><path class="st6" d="M140.659 169.231h-25.288c-.453 0-.843-.265-1.026-.647a1.137 1.137 0 0 0 1.027 1.626h25.288a1.137 1.137 0 0 0 1.027-1.626 1.141 1.141 0 0 1-1.028.647zM126.593 173.724a3.2 3.2 0 0 0 1.422.332c.511 0 .993-.119 1.422-.332v-1.837h-2.844v1.837z"/><circle class="st9" cx="128.016" cy="169.358" r="3.209"/><path class="st8" d="M128.016 169.869a3.21 3.21 0 0 1-2.912-1.86 3.21 3.21 0 1 0 5.824 0 3.21 3.21 0 0 1-2.912 1.86z"/><g><path class="st9" d="M145.451 175.781a.766.766 0 0 1-.621-.315l-3.877-5.301-3.877 5.301a.769.769 0 0 1-1.241-.907l4.498-6.149a.768.768 0 0 1 1.24 0l4.497 6.149a.768.768 0 0 1-.619 1.222z"/><path class="st10" d="m137.076 175.466 3.877-5.301 3.877 5.301a.768.768 0 0 0 1.154.099l-4.411-6.031a.768.768 0 0 0-1.24 0l-4.411 6.031a.769.769 0 0 0 1.154-.099z"/><path class="st10" d="M141.7 180.956h-1.495a5.427 5.427 0 0 1-5.427-5.427v-.796c0-.322.261-.584.583-.584h11.183c.322 0 .583.261.583.584v.796a5.426 5.426 0 0 1-5.427 5.427z"/><path class="st9" d="M140.953 180.956a3.084 3.084 0 0 1-3.084-3.084v-3.391c0-.183.148-.332.331-.332h5.505c.183 0 .332.149.332.332v3.391a3.084 3.084 0 0 1-3.084 3.084z"/></g><g><path class="st9" d="M119.545 175.781a.768.768 0 0 1-.621-.315l-3.877-5.301-3.877 5.301a.769.769 0 0 1-1.241-.907l4.497-6.149a.768.768 0 0 1 1.24 0l4.497 6.149a.768.768 0 0 1-.618 1.222z"/><path class="st10" d="m111.17 175.466 3.877-5.301 3.877 5.301a.768.768 0 0 0 1.154.099l-4.411-6.031a.768.768 0 0 0-1.24 0l-4.411 6.031a.769.769 0 0 0 1.154-.099z"/><path class="st10" d="M115.795 180.956H114.3a5.427 5.427 0 0 1-5.427-5.427v-.796c0-.322.261-.584.583-.584h11.183c.322 0 .583.261.583.584v.796a5.427 5.427 0 0 1-5.427 5.427z"/><path class="st9" d="M115.047 180.956a3.084 3.084 0 0 1-3.084-3.084v-3.391c0-.183.148-.332.331-.332h5.505c.183 0 .332.149.332.332v3.391a3.084 3.084 0 0 1-3.084 3.084z"/></g></g><g><circle class="st11" cx="163.107" cy="91.342" r="8.846"/><path class="st12" d="M163.107 94.285a8.851 8.851 0 0 1-8.342-5.895 8.846 8.846 0 0 0 8.342 11.798 8.846 8.846 0 0 0 8.341-11.798 8.849 8.849 0 0 1-8.341 5.895z"/><g><circle class="st11" cx="92.893" cy="91.342" r="8.847"/><path class="st12" d="M92.893 94.285a8.85 8.85 0 0 1-8.341-5.895 8.846 8.846 0 0 0 8.342 11.798 8.846 8.846 0 0 0 8.341-11.798 8.849 8.849 0 0 1-8.342 5.895z"/></g></g><g><ellipse transform="rotate(-67.5 127.998 124.68)" class="st11" cx="128" cy="124.684" rx="8.846" ry="8.847"/><path class="st12" d="M128 127.627a8.848 8.848 0 0 1-8.341-5.895 8.846 8.846 0 1 0 16.682 0 8.848 8.848 0 0 1-8.341 5.895z"/></g><g><ellipse transform="rotate(-67.5 198.236 124.68)" class="st11" cx="198.239" cy="124.684" rx="8.846" ry="8.847"/><path class="st12" d="M198.239 127.627a8.848 8.848 0 0 1-8.341-5.895 8.846 8.846 0 0 0 8.342 11.798 8.847 8.847 0 0 0 8.342-11.798 8.851 8.851 0 0 1-8.343 5.895z"/><g><ellipse transform="rotate(-81.031 57.76 124.68)" class="st11" cx="57.761" cy="124.684" rx="8.846" ry="8.847"/><path class="st12" d="M57.761 127.627a8.848 8.848 0 0 1-8.341-5.895 8.846 8.846 0 0 0 8.342 11.798 8.847 8.847 0 0 0 8.342-11.798 8.853 8.853 0 0 1-8.343 5.895z"/></g></g></g></g></switch></svg>